<svg width="44" height="48" viewBox="0 0 44 48" fill="none" xmlns="http://www.w3.org/2000/svg">
<path fill-rule="evenodd" clip-rule="evenodd" d="M13.804 28C10.36 25.22 8 20.064 8 15.926C8 9.738 12.316 6.146 16.374 6.004C18.056 5.978 19.832 6.402 21.162 7.144C20.812 4.588 19.668 2.626 18.474 1.228L21.208 0C21.774 0.814 22.352 2.258 22.73 3.958C23.496 2.568 24.426 1.434 25.68 0.702C27.018 -0.08 29.236 -0.122 30.716 0.158C30.342 1.474 29.562 3.184 27.734 4.308C26.61 4.998 24.8 5.352 22.966 5.214C23.05 5.78 23.112 6.362 23.14 6.948C24.504 6.22 26.02 5.98 27.626 6.004C31.684 6.146 36 9.738 36 15.926C36 20.064 33.64 25.22 30.196 28H44V32H5C4.448 32 4 32.448 4 33C4 33.552 4.448 34 5 34H44V38H7C5.344 38 4 39.344 4 41C4 42.656 5.344 44 7 44H44V48H7C3.136 48 0 44.864 0 41C0 39.34 0.58 37.814 1.546 36.614C0.594 35.704 0 34.42 0 33C0 30.24 2.24 28 5 28H13.804ZM44 42H8V40H44V42ZM22.028 12C20.702 10.896 19.158 9.868 16.356 10.008C14.356 10.148 11.828 12.212 12.008 16.332C12.152 19.696 14.508 23.834 16.954 25.34C18.948 26.592 20.376 25.878 22 24.912L22.076 24.958C23.668 25.9 25.084 26.572 27.046 25.34C29.492 23.834 31.848 19.696 31.992 16.332C32.172 12.212 29.644 10.148 27.644 10.008C25.192 9.884 23.604 10.868 22.028 12ZM25.528 13.096C27.872 15.742 27.474 18.226 25.208 22.91C27.348 22.028 29.226 19.096 29.208 17.044C29.186 14.552 27.434 12.984 25.528 13.096Z" fill="white"/>
</svg>
