<svg width="48" height="48" viewBox="0 0 48 48" fill="none" xmlns="http://www.w3.org/2000/svg">
<path fill-rule="evenodd" clip-rule="evenodd" d="M34.302 19.076C36.926 19.178 38.94 21.284 38.978 23.984V26.236C39.746 26.392 42.51 26.956 43.256 27.13C46.504 27.964 47.99 30.504 47.978 33.786C47.956 37.008 46.588 38.602 45.714 40.602C45.198 41.826 45.012 42.824 44.98 44.152L44.978 48H31.536C31.544 46.476 31.366 44.51 30.726 43.126C29.868 41.26 27.976 39.628 25.806 37.294C24.196 35.46 23.998 33.262 24.928 31.554C25.726 30.088 27.276 29.142 29.378 29.304C29.378 27.492 29.356 25.68 29.378 23.87C29.518 20.916 31.766 19.046 34.302 19.076ZM41.178 44C41.232 40.724 42.25 38.888 43.07 37.324C43.714 36.096 44.176 35.212 44.176 33.78C44.176 32.15 43.656 31.488 43.01 31.166C42.538 30.932 41.994 31.296 41.994 31.846V32.812C41.994 33.144 41.738 33.414 41.424 33.414C41.106 33.414 40.85 33.144 40.85 32.812V31.192C40.85 30.764 40.566 30.4 40.172 30.318C39.65 30.208 39.162 30.632 39.162 31.192V32.068C39.162 32.402 38.906 32.672 38.592 32.672C38.274 32.672 38.018 32.402 38.018 32.068V30.724C38.018 30.296 37.732 29.928 37.336 29.844C36.81 29.734 36.32 30.16 36.32 30.724V31.33C36.32 31.664 36.064 31.934 35.752 31.934C35.432 31.934 35.176 31.664 35.176 31.33V23.994C35.176 23.448 34.72 22.986 34.178 22.986C33.636 22.986 33.178 23.448 33.178 23.994V36.588C32.114 35.194 30.318 33.198 29.056 33.206C28.222 33.208 27.926 33.93 28.614 34.656C31.24 37.432 34.324 39.968 35.05 44H41.178ZM48 25.276C47.722 25.058 47.43 24.856 47.13 24.668C46.164 24.072 45.102 23.664 44 23.402V4.214C33.66 4.994 28.906 7.158 26 8.878V26C24.28 26.578 22.936 27.704 22 29.066V8.884C19.052 7.142 14.314 4.992 4 4.214V31.622C11.448 32.132 17.244 33.648 20.636 34.754C20.718 35.454 20.886 36.146 21.132 36.806C21.564 37.972 22.236 39.02 23.074 39.934C22.478 39.848 21.892 39.676 21.334 39.42C15.59 36.79 7.874 35.67 0 35.43V0C9.168 0.282 18.124 1.754 24 5.414C29.876 1.754 38.832 0.282 48 0V25.276ZM8 27.462C12.172 28.086 16.902 29.51 20 30.81V28.68C16.664 27.436 12.238 26.052 8 25.428V27.462ZM8 23.4C12.172 24.024 16.902 25.446 20 26.746V24.618C16.664 23.374 12.238 21.986 8 21.368V23.4ZM8 19.338C12.172 19.96 16.902 21.384 20 22.684V20.556C16.664 19.312 12.238 17.924 8 17.304V19.338ZM8 15.276C12.172 15.898 16.902 17.324 20 18.62V16.492C16.664 15.248 12.238 13.864 8 13.242V15.276ZM40 13.242C35.76 13.864 31.336 15.248 28 16.492V18.62C31.096 17.324 35.828 15.898 40 15.276V13.242ZM8 9.16C12.238 9.778 16.664 11.166 20 12.41V14.538C16.902 13.24 12.172 11.816 8 11.192V9.16ZM40 11.192C35.828 11.816 31.096 13.24 28 14.538V12.41C31.336 11.166 35.76 9.778 40 9.16V11.192Z" fill="white"/>
</svg>
