<svg width="44" height="48" viewBox="0 0 44 48" fill="none" xmlns="http://www.w3.org/2000/svg">
<path fill-rule="evenodd" clip-rule="evenodd" d="M29.9921 48H4.7824C4.7824 48 6.25039 40.1377 6.04839 36.6275C5.96639 35.1795 5.72639 33.6794 4.9684 32.4193C3.67841 30.4193 -0.303545 24.979 0.0184514 17.5587C0.466447 7.1403 9.40435 0 20.2702 0C30.4661 0 37.2841 6.00225 39.986 14.9666C40.642 17.1247 40.608 18.0488 39.684 20.1808L39.672 20.2068L43.174 24.491C43.694 25.2531 44 26.0731 44 26.9691C44 28.0632 43.534 29.0592 42.78 29.7672C42.044 30.4573 41.246 30.6713 40.284 31.0513C40.284 31.0513 39.132 36.2355 38.5381 37.6336C37.1381 40.9197 34.5981 40.9517 32.5981 41.3317C31.8101 41.4977 31.6181 41.5977 31.2361 42.6938C30.8201 43.8758 30.5101 45.5639 29.9921 48ZM20.3082 3.99817C11.7383 4.09417 4.8284 9.09438 4.06641 16.9747C3.68241 20.9569 4.9924 24.947 7.09838 28.3852C8.32037 30.3853 9.70835 31.5693 10.0263 36.1355C10.2083 38.7616 9.92635 41.4077 9.54435 43.9998H26.7522C27.0342 42.7098 27.4522 41.0297 28.1262 39.8857C29.0242 38.3536 30.3201 37.6876 31.9781 37.3776C33.6541 37.0815 34.4541 37.2596 34.9561 35.8075C35.3801 34.6494 36.1801 31.3653 36.6181 28.0032C39.0241 27.3331 37.8421 27.6812 39.96 26.8851C39.548 26.4171 36.1241 22.2569 35.8701 21.6849C35.1981 20.1668 35.7781 19.3048 36.3201 17.8587C36.4921 17.3567 36.4401 17.1447 36.3021 16.6327C34.2041 8.73436 28.5202 3.99817 20.3082 3.99817ZM21.3482 9.99842C21.8322 11.3665 21.9722 12.2425 23.0302 12.6805H23.0322C24.0922 13.1225 24.8182 12.5925 26.1182 11.9745L28.0242 13.8786C27.4002 15.1886 26.8782 15.9107 27.3162 16.9667V16.9687C27.7542 18.0248 28.6222 18.1628 30.0001 18.6508V21.3449C28.6382 21.8309 27.7542 21.9709 27.3162 23.031C26.8762 24.089 27.4022 24.813 28.0242 26.1191L26.1182 28.0232C24.8042 27.3971 24.0902 26.8751 23.0362 27.3131H23.0342C21.9722 27.7572 21.8322 28.6352 21.3482 29.9993H18.6523C18.1683 28.6312 18.0283 27.7552 16.9703 27.3191L16.9683 27.3171C15.9103 26.8751 15.1843 27.4031 13.8803 28.0232L11.9763 26.1191C12.5863 24.833 13.1243 24.097 12.6823 23.029C12.2423 21.9709 11.3603 21.8309 10.0003 21.3449V18.6508C11.3623 18.1668 12.2423 18.0268 12.6823 16.9687C13.1223 15.9067 12.5983 15.1866 11.9763 13.8786L13.8803 11.9745C15.1943 12.5985 15.9103 13.1205 16.9683 12.6805H16.9703C18.0283 12.2425 18.1683 11.3585 18.6523 9.99842H21.3482ZM20.0002 23.333C18.1603 23.333 16.6663 21.8409 16.6663 19.9988C16.6663 18.1568 18.1603 16.6647 20.0002 16.6647C21.8402 16.6647 23.3322 18.1568 23.3322 19.9988C23.3322 21.8409 21.8402 23.333 20.0002 23.333Z" fill="white"/>
</svg>
