<svg width="40" height="48" viewBox="0 0 40 48" fill="none" xmlns="http://www.w3.org/2000/svg">
<path fill-rule="evenodd" clip-rule="evenodd" d="M2.80999 29.798C6.75799 33.84 11.37 36.098 17 36.098C27.4859 36.098 35.9999 27.586 35.9999 17.098C35.9999 11.018 33.4999 6.68 29.6039 2.818L32.4219 0C37.0339 4.196 39.9799 10.238 39.9999 16.96C40.0319 28.648 31.2859 38.338 20 39.84V40C20 43.75 23.0519 46 25.9999 46H27.9999V48H5.99999V46H7.99998C10.998 46 14 43.698 14 40V39.858C8.48998 39.156 3.58399 36.5 0 32.606L2.80999 29.798ZM0 17.2C0 7.81 7.60998 0.2 17 0.2C26.3759 0.2 33.9999 7.798 33.9999 17.2C33.9999 26.59 26.3879 34.198 17 34.198C7.60998 34.198 0 26.586 0 17.2ZM17.766 3.072C17.44 3.082 17.21 3.446 16.958 3.654C16.454 4.072 15.164 4.892 14.444 4.642C13.708 4.39 12.134 5.578 11.882 5.588C11.788 5.59 11.886 4.688 12.388 4.622C12.17 4.654 14.154 3.62 14.1 3.404C14.036 3.148 10.136 4.568 10.31 4.854C10.392 4.984 10.732 4.984 10.286 5.27C10.032 5.424 9.75798 6.404 9.51798 6.404C8.80398 6.716 8.75798 5.79 7.96398 6.984L6.69599 7.496C4.81599 9.492 3.51399 12.024 3.04199 14.836C3.02399 14.95 3.51599 15.156 3.57799 15.234C3.73799 15.424 3.73799 16.244 3.81599 16.51C4.01199 17.188 4.49399 17.564 4.86399 18.18C5.08199 18.548 5.44399 19.476 5.32999 19.86C5.48399 19.608 6.84798 21.016 7.09598 21.308C7.68198 22 8.13598 22.834 7.18198 23.516C6.87399 23.738 7.64798 25.116 7.24998 25.456L6.73599 25.586C6.23199 25.896 6.45999 26.658 6.76799 26.978C9.34398 29.672 12.974 31.35 16.996 31.35C24.8099 31.35 31.1459 25.014 31.1459 17.2C31.1459 15.732 30.8959 14.252 30.6399 13.472C30.5599 13.226 30.3719 13.028 30.1319 12.936C29.7679 12.796 28.2359 13.78 28.0059 13.296L27.1959 13.306C27.0259 13.214 26.5539 12.578 26.3379 12.654C25.8999 12.814 27.0099 14.02 27.3119 14.18C27.5959 13.964 28.5179 13.522 28.7179 14.126C29.0979 15.264 27.6739 16.512 26.9459 17.172C25.8579 18.154 26.0599 16.534 25.3199 15.964C24.9299 15.666 24.9339 15.028 24.5419 14.808C24.3739 14.714 23.6379 13.872 23.5699 13.68L23.5659 13.656L23.5699 13.68L23.5439 13.89C23.41 13.994 23.1279 13.512 23.0959 13.436C23.0959 13.854 23.7779 14.52 24.0019 14.854C24.3839 15.428 24.5899 16.264 25.0599 16.734C25.3119 16.986 26.2779 18.028 26.5279 18.006L27.8179 17.392C28.7299 17.608 25.6719 21.934 25.3819 22.468C25.1419 22.92 25.5739 24.028 25.5419 24.56C25.4999 25.172 25.0179 25.372 24.5599 25.704C24.0679 26.064 24.1839 26.76 23.7719 27.014C23.0399 27.466 22.512 28.932 21.474 28.924C21.166 28.924 19.858 29.434 19.686 28.934C19.554 28.572 19.374 28.296 19.186 27.938C19.004 27.588 19.166 27.224 18.942 26.914C18.786 26.698 18.27 26.21 18.224 25.954C18.22 25.736 18.39 25.068 18.62 24.95C18.946 24.786 18.682 24.302 18.642 24.022C18.574 23.52 18.264 23.106 17.89 22.816C17.34 22.392 17.626 22.056 17.754 21.45C17.754 21.162 17.578 20.784 17.188 20.896C16.39 21.13 16.634 20.272 16.052 20.312C15.632 20.34 15.288 20.608 14.898 20.724C14.408 20.872 13.906 20.61 13.422 20.548C11.428 20.296 10.778 18.018 11.298 16.374L11.23 15.398C11.454 14.898 11.912 14.34 12.31 13.962C12.534 13.748 12.82 13.802 13.084 13.638C13.492 13.382 13.498 12.854 13.894 12.532C14.462 12.07 15.234 12.08 15.976 11.982C16.368 11.928 17.868 11.604 18.104 11.896C18.104 11.95 18.36 12.712 18.1 12.71L18.076 12.708L18.1 12.71C18.712 12.764 19.572 13.766 20.146 13.528C20.446 13.404 20.336 12.484 20.952 12.93C21.32 13.196 22.9839 13.314 23.3299 13.028C23.5439 12.852 23.6639 11.71 23.4019 11.582C23.5659 11.746 22.54 11.758 22.442 11.72C22.28 11.66 22.13 11.862 21.878 11.772L21.852 11.762C21.93 11.792 20.948 11.238 21.532 10.812L20.768 10.964L20.588 11.35C20.16 11.57 19.836 10.608 19.676 10.5C19.512 10.392 18.24 9.5 18.586 10.082L19.704 11.194C19.648 11.23 19.41 10.79 19.41 11.112C19.484 10.922 19.436 11.932 19.262 11.602L19.27 11.224C19.27 11.102 18.948 10.986 18.884 10.904C18.708 10.684 18.236 10.2 17.982 10.084C17.912 10.05 16.9 10.206 16.814 10.24L16.56 10.68C16.35 10.758 16.154 10.858 15.968 10.982L15.746 11.482C15.648 11.568 14.662 11.894 14.656 11.906C14.698 11.8 13.966 11.664 14.014 11.452C14.068 11.218 14.316 10.488 14.252 10.222C14.184 9.942 15.774 10.624 15.878 9.888C15.918 9.57 15.94 9.198 15.432 9.144C15.528 9.156 16.416 8.796 16.564 8.634C16.77 8.396 17.246 8.006 17.59 8.006C17.992 8.006 17.904 7.422 18.09 7.134C18.276 7.21 17.99 7.668 18.214 7.854C18.198 7.708 18.844 7.932 18.906 7.9C19.056 7.82 19.876 7.868 19.748 7.48C19.606 7.088 19.82 7.204 20.006 7.122C19.974 7.134 20.486 6.246 20.574 6.538C20.514 6.238 19.978 6.642 19.792 6.628C19.36 6.592 19.542 5.892 19.706 5.684C19.832 5.522 19.362 5.324 19.356 5.634C19.348 6.1 18.914 6.522 19.014 7.142C19.168 8.076 17.972 6.918 17.868 6.98C17.472 7.22 17.148 6.678 17.352 6.35L18.276 5.676C18.424 5.424 18.594 5.132 18.822 4.94C19.58 4.304 19.788 4.814 20.544 4.882C21.282 4.95 20.792 5.058 20.692 5.342C20.594 5.612 21.098 5.708 21.272 5.482C21.37 5.352 21.598 5.024 21.694 4.782C21.82 4.468 22.9699 4.504 22.168 4.022C21.638 3.708 19.328 3.07 17.78 3.07L17.766 3.072ZM18.62 11.774C18.57 11.68 19.104 11.632 19.198 11.632C19.304 11.644 18.924 12.27 18.62 11.774ZM22.226 9.59C22.22 9.382 21.958 9.188 21.686 9.546C21.496 9.794 21.53 10.17 21.428 10.336C21.278 10.584 22.23 10.816 22.23 10.582C22.266 10.188 23.268 10.492 23.4639 10.546C23.8139 10.642 24.3739 10.226 23.7619 10.006C23.2559 9.822 22.992 9.628 22.948 9.266C22.948 9.266 23.216 9.018 23.0979 9.032C22.788 9.068 22.226 10.144 22.226 9.59ZM15.572 7.422L15.726 7.38L15.652 7.572C15.774 7.792 15.684 7.922 15.664 8.042L15.454 8.172C15.378 8.266 15.818 8.28 15.824 8.292C15.84 8.34 15.292 8.418 15.394 8.534C15.528 8.728 16.56 8.258 16.396 8.286C16.714 8.126 16.438 8.108 16.26 8.016C16.198 7.712 16.148 7.242 15.958 7.052L16.082 6.91C15.79 6.486 15.572 7.422 15.572 7.422ZM14.842 8.194C14.722 8.244 14.602 8.168 14.72 8.048L14.844 7.898L14.832 7.83L14.93 7.706L15.032 7.68L15.242 7.534C15.304 7.546 15.45 7.666 15.4 7.742L15.286 7.882C15.262 8.118 15.022 8.116 14.846 8.194H14.838H14.842Z" fill="white"/>
</svg>
