<svg width="44" height="48" viewBox="0 0 44 48" fill="none" xmlns="http://www.w3.org/2000/svg">
<path fill-rule="evenodd" clip-rule="evenodd" d="M21.998 44.492C21.1421 44.492 19.8002 43.074 18.6223 39.94C17.4644 40.53 16.4585 40.994 15.4806 41.416C17.0145 45.4 19.1963 48 21.998 48C24.8777 48 27.1015 45.258 28.6414 41.096C27.6715 40.694 26.6476 40.236 25.4797 39.658C24.2818 42.992 22.8839 44.492 21.998 44.492V44.492ZM12.5809 40.06C6.38342 42.338 0.00199982 42.396 0.00199982 36.772C0.00199982 34.894 0.871921 32.258 3.59367 28.608C4.75557 27.05 6.10145 25.518 7.46732 24.112C10.529 21.002 13.9787 18.012 18.4763 14.914C16.3105 13.722 13.9487 12.58 11.6449 11.734C9.28516 10.864 7.20734 10.382 5.61549 10.382C4.59958 10.382 3.84365 10.596 3.59767 10.958C3.3317 11.342 3.3217 12.526 4.48759 14.644L4.90755 14.618C7.00136 14.618 8.70321 16.35 8.70321 18.484C8.70321 20.618 7.00136 22.346 4.90755 22.346C2.81174 22.346 1.1139 20.618 1.1139 18.484C1.1139 17.792 1.29188 17.144 1.60385 16.582C0.423961 14.502 0 12.862 0 11.576C0 8.546 2.30779 6.868 5.61549 6.868C10.643 6.868 17.4144 10.192 21.778 12.76C26.2056 10.034 33.211 6.442 38.3845 6.442C42.1702 6.442 43.998 8.55 43.998 11.232C43.998 13.11 43.1261 15.744 40.4063 19.392C34.2389 27.666 21.976 36.604 12.5809 40.06ZM42.4121 31.45C42.6961 30.91 42.8521 30.298 42.8521 29.646C42.8521 27.51 41.1543 25.78 39.0584 25.78C36.9626 25.78 35.2648 27.51 35.2648 29.646C35.2648 31.778 36.9626 33.506 39.0584 33.506L39.5744 33.472C40.6783 35.52 40.6623 36.666 40.4043 37.046C40.1563 37.408 39.4024 37.62 38.3845 37.62C35.1808 37.62 30.7192 35.732 27.8455 34.306C26.8856 34.99 25.6957 35.802 24.5318 36.544C28.3814 38.616 34.0449 41.134 38.3845 41.134C41.6642 41.134 44 39.474 44 36.426C44 35.15 43.578 33.516 42.4121 31.45V31.45ZM16.7465 31.688H16.7445L16.7185 31.668C14.4307 30.048 12.1749 28.268 10.0851 26.406C4.4516 32.16 2.86374 36.332 3.60967 37.454C3.86165 37.832 4.59358 38.052 5.61549 38.052C10.3151 38.052 17.7744 34.016 22.188 31.122C27.6055 27.572 33.7869 22.466 37.6586 17.27C40.6703 13.234 40.7623 11.108 40.3903 10.548C40.1384 10.168 39.4084 9.952 38.3845 9.952C34.4809 9.952 28.5374 12.87 25.1137 14.846C27.6395 16.518 29.9993 18.284 32.1531 20.078C31.3372 20.908 30.4852 21.716 29.6133 22.5C27.2215 20.536 24.5658 18.608 21.812 16.88C18.6503 18.952 15.4666 21.388 12.6069 23.984C14.7567 25.886 17.3184 27.882 20.0482 29.73C19.0043 30.392 17.9504 31.024 16.7465 31.688V31.688ZM21.998 20C24.2058 20 25.9976 21.792 25.9976 24C25.9976 26.208 24.2058 28 21.998 28C19.7902 28 17.9984 26.208 17.9984 24C17.9984 21.792 19.7902 20 21.998 20ZM18.5203 8.344C17.3604 7.774 16.3305 7.308 15.3586 6.908C16.8985 2.744 19.1223 0 21.998 0C24.8037 0 26.9875 2.604 28.5194 6.584C27.5395 7.008 26.5276 7.478 25.3757 8.062C24.2018 4.928 22.8599 3.512 21.998 3.512C21.1161 3.512 19.7202 5.012 18.5203 8.344V8.344Z" fill="white"/>
</svg>
