<svg width="48" height="48" viewBox="0 0 48 48" fill="none" xmlns="http://www.w3.org/2000/svg">
<path fill-rule="evenodd" clip-rule="evenodd" d="M20 46C20 43.79 21.79 42 24 42H28C29.06 42 30.078 42.422 30.828 43.172C31.578 43.922 32 44.94 32 46V48H20V46ZM36 46C36 43.79 37.79 42 40 42H44C45.06 42 46.078 42.422 46.828 43.172C47.578 43.922 48 44.94 48 46V48H36V46ZM13.518 18C14.816 18 16.104 17.574 16.902 17.128C18.412 16.288 22.292 13.842 23.872 12.88C24.304 12.618 24.862 12.714 25.18 13.106L25.196 13.128C25.526 13.536 25.488 14.126 25.11 14.488C23.866 15.682 20.224 19.144 18.37 20.914C17.326 21.912 16.726 23.28 16.664 24.722C16.474 29.136 16.142 38.546 16.002 42.388C15.968 43.288 15.228 44 14.328 44H14.326C13.438 44 12.754 43.306 12.654 42.424C12.432 40.462 11.996 35.864 11.802 34C11.722 33.232 11.242 32.774 10.632 32.77C10.024 32.768 9.586 33.222 9.534 33.988C9.412 35.83 9.004 40.484 8.852 42.428C8.784 43.312 8.058 44 7.172 44H7.17C6.266 44 5.522 43.286 5.486 42.384C5.292 37.7 4.748 24.456 4.748 24.456L2.174 29.116C1.894 29.622 1.284 29.844 0.744 29.636H0.742C0.184 29.42 -0.118 28.814 0.044 28.24L2.532 19.454C2.776 18.594 3.562 18 4.456 18H13.518ZM26 32C28.484 32 30.5 34.016 30.5 36.5C30.5 38.984 28.484 41 26 41C23.516 41 21.5 38.984 21.5 36.5C21.5 34.016 23.516 32 26 32ZM42 32C44.484 32 46.5 34.016 46.5 36.5C46.5 38.984 44.484 41 42 41C39.516 41 37.5 38.984 37.5 36.5C37.5 34.016 39.516 32 42 32ZM48 30H20V26H34V24H40V26H44V4H4V12.712L0 16.712V0H48V30ZM34 20H28V18H34V20ZM10.748 8C13.23 8 15.248 10.016 15.248 12.5C15.248 14.984 13.23 17 10.748 17C8.264 17 6.248 14.984 6.248 12.5C6.248 10.016 8.264 8 10.748 8ZM40 16H28V14H40V16ZM40 12H28V10H40V12Z" fill="white"/>
</svg>
